<?xml version="1.0" encoding="utf-8"?>
<svg version="1.1" xmlns="http://www.w3.org/2000/svg" xmlns:xlink="http://www.w3.org/1999/xlink" x="0px" y="0px"
	 viewBox="0 0 21 20" style="enable-background:new 0 0 21 20;" xml:space="preserve">
<path d="M18.05,16.05c-0.1-0.1-0.2-0.2-0.3-0.2l-1.41-0.92c1.32-1.56,2.11-3.58,2.11-5.78c0-4.96-4.04-9-9-9
	s-9,4.04-9,9s4.04,9,9,9c2.32,0,4.43-0.89,6.03-2.34l0.97,1.34c0.1,0.1,0.1,0.2,0.2,0.3l2.5,2.4l1.4-1.5L18.05,16.05z M9.45,16.15
	c-3.86,0-7-3.14-7-7c0-3.86,3.14-7,7-7s7,3.14,7,7C16.45,13.01,13.31,16.15,9.45,16.15z"/>
</svg>
