<?xml version="1.0" encoding="utf-8"?>
<svg version="1.1" xmlns="http://www.w3.org/2000/svg" xmlns:xlink="http://www.w3.org/1999/xlink" x="0px" y="0px"
	 viewBox="0 0 20 30" style="enable-background:new 0 0 20 30;" xml:space="preserve">
<path d="M5.73,18.88v-0.56c0-1.04,0.19-1.95,0.57-2.73c0.38-0.78,0.84-1.41,1.38-1.89c0.54-0.48,1.23-1.02,2.08-1.61
	c0.84-0.59,1.46-1.1,1.86-1.53c0.4-0.43,0.59-0.92,0.59-1.49c0-0.56-0.19-1-0.57-1.33c-0.38-0.32-0.89-0.48-1.52-0.48
	c-0.74,0-1.32,0.19-1.76,0.58C7.92,8.24,7.71,8.73,7.71,9.32v0.16c0,0.38-0.2,0.56-0.59,0.56L0.86,9.76c-0.18,0-0.33-0.03-0.44-0.08
	C0.32,9.63,0.27,9.58,0.27,9.52v-0.2c0-1.74,0.42-3.29,1.27-4.64c0.84-1.35,2.02-2.4,3.54-3.15c1.52-0.75,3.26-1.12,5.24-1.12
	c1.9,0,3.55,0.35,4.96,1.04c1.41,0.7,2.5,1.67,3.28,2.91c0.78,1.24,1.17,2.7,1.17,4.36c0,1.2-0.2,2.22-0.59,3.05
	c-0.4,0.83-0.86,1.5-1.4,2.01c-0.54,0.51-1.25,1.08-2.12,1.73c-0.87,0.62-1.51,1.15-1.92,1.61c-0.41,0.46-0.61,1.02-0.61,1.69v0.04
	c0,0.19-0.05,0.34-0.16,0.44c-0.11,0.11-0.25,0.16-0.44,0.16H6.32C5.93,19.44,5.73,19.25,5.73,18.88 M6.88,28.39
	c-0.76-0.8-1.14-1.76-1.14-2.88c0-1.15,0.39-2.13,1.16-2.94c0.77-0.82,1.7-1.22,2.79-1.22c1.06,0,1.99,0.41,2.77,1.22
	c0.78,0.82,1.18,1.78,1.18,2.9c0,1.15-0.39,2.12-1.18,2.92c-0.79,0.8-1.72,1.2-2.81,1.2C8.56,29.59,7.64,29.19,6.88,28.39"/>
</svg>
