<?xml version="1.0" encoding="utf-8"?>
<!-- Generator: Adobe Illustrator 19.1.0, SVG Export Plug-In . SVG Version: 6.00 Build 0)  -->
<svg version="1.1" id="Lager_1" xmlns="http://www.w3.org/2000/svg" xmlns:xlink="http://www.w3.org/1999/xlink" x="0px" y="0px"
	 viewBox="0 0 160 160" style="enable-background:new 0 0 160 160;" xml:space="preserve">
<style type="text/css">
	.st0{clip-path:url(#SVGID_2_);fill:url(#SVGID_3_);}
	.st1{clip-path:url(#SVGID_5_);fill:url(#SVGID_6_);}
	.st2{clip-path:url(#SVGID_8_);fill:url(#SVGID_9_);}
	.st3{clip-path:url(#SVGID_11_);fill:url(#SVGID_12_);}
	.st4{clip-path:url(#SVGID_14_);fill:#0E5CA8;}
	.st5{clip-path:url(#SVGID_16_);fill:url(#SVGID_17_);}
	.st6{clip-path:url(#SVGID_19_);fill:url(#SVGID_20_);}
	.st7{clip-path:url(#SVGID_22_);fill:#010202;}
</style>
<g>
	<g>
		<defs>
			<path id="SVGID_1_" d="M60.2,0c-8.7,0-15.8,7.1-15.8,15.8c0,8.7,7.1,15.8,15.8,15.8s15.8-7.1,15.8-15.8C76.1,7.1,69,0,60.2,0z"/>
		</defs>
		<clipPath id="SVGID_2_">
			<use xlink:href="#SVGID_1_"  style="overflow:visible;"/>
		</clipPath>
		
			<linearGradient id="SVGID_3_" gradientUnits="userSpaceOnUse" x1="-361.0855" y1="367.2907" x2="-359.4297" y2="367.2907" gradientTransform="matrix(7.9002 13.9415 13.9415 -7.9002 -2213.0278 7942.1548)">
			<stop  offset="0" style="stop-color:#15BBEF"/>
			<stop  offset="0.3005" style="stop-color:#09A6E0"/>
			<stop  offset="0.52" style="stop-color:#0699D6"/>
			<stop  offset="1" style="stop-color:#0E5CA8"/>
		</linearGradient>
		<polygon class="st0" points="68.4,-13.6 89.6,23.9 52.1,45.2 30.9,7.7 		"/>
	</g>
	<g>
		<defs>
			<path id="SVGID_4_" d="M98.7,0C90,0,82.9,7.1,82.9,15.8c0,8.7,7.1,15.8,15.8,15.8c8.7,0,15.8-7.1,15.8-15.8
				C114.5,7.1,107.4,0,98.7,0z"/>
		</defs>
		<clipPath id="SVGID_5_">
			<use xlink:href="#SVGID_4_"  style="overflow:visible;"/>
		</clipPath>
		
			<linearGradient id="SVGID_6_" gradientUnits="userSpaceOnUse" x1="-358.3056" y1="368.2583" x2="-356.6497" y2="368.2583" gradientTransform="matrix(8.0798 15.7107 15.7107 -8.0798 -2798.4121 8607.7959)">
			<stop  offset="0" style="stop-color:#B9D478"/>
			<stop  offset="0.5018" style="stop-color:#97C453"/>
			<stop  offset="1" style="stop-color:#76B948"/>
		</linearGradient>
		<polygon class="st1" points="107.9,-12.9 127.3,25 89.5,44.5 70,6.6 		"/>
	</g>
	<g>
		<defs>
			<path id="SVGID_7_" d="M43.5,93.7c-0.6,0-1.3,0-1.9,0c-4.3,0-8.3-0.4-11.5-0.9c0.9,3.1,2.4,6.1,3.9,8.9
				c6.9,11.5,19.2,18.5,32.6,18.5c16.9,0,31.6-11.8,36.5-27.6c-5.2,7.9-14.2,12.6-23.7,12.6c-9.8,0-18.7-5-23.8-13.1
				C51.8,93,47.8,93.6,43.5,93.7"/>
		</defs>
		<clipPath id="SVGID_8_">
			<use xlink:href="#SVGID_7_"  style="overflow:visible;"/>
		</clipPath>
		
			<linearGradient id="SVGID_9_" gradientUnits="userSpaceOnUse" x1="-327.5219" y1="381.069" x2="-325.8661" y2="381.069" gradientTransform="matrix(-21.8934 -21.0825 -21.0825 21.8934 945.4919 -15126.8857)">
			<stop  offset="0" style="stop-color:#15BBEF"/>
			<stop  offset="0.3005" style="stop-color:#09A6E0"/>
			<stop  offset="0.52" style="stop-color:#0699D6"/>
			<stop  offset="1" style="stop-color:#0E5CA8"/>
		</linearGradient>
		<polygon class="st2" points="68.1,156.7 16.1,106.7 65.3,55.6 117.3,105.6 		"/>
	</g>
	<g>
		<defs>
			<path id="SVGID_10_" d="M29.9,61.8c3.4,1.4,7.5,2.6,11.8,2.6c9,0,14.2-3.9,15.7-5.1c1.4-1.2,2.7-1.5,3.6-1.4
				c1.7,0.2,2.9,1.6,3.3,2l17.9,17.8c3.6,3.5,12.3,9.6,21.9,11.8c0.5-2.4,0.9-5.7,0.9-8.3c0-14.2-5.9-19.8-5.9-19.8L77.8,40.1
				c0,0-3.1-2.8-5.7-4.1c-2.4-1.2-6.3-2.6-12.1-2.6C39,33.4,31.4,56.8,29.9,61.8"/>
		</defs>
		<clipPath id="SVGID_11_">
			<use xlink:href="#SVGID_10_"  style="overflow:visible;"/>
		</clipPath>
		
			<linearGradient id="SVGID_12_" gradientUnits="userSpaceOnUse" x1="-349.787" y1="375.2103" x2="-348.1311" y2="375.2103" gradientTransform="matrix(23.311 25.191 25.191 -23.311 -1240.4855 17608.668)">
			<stop  offset="0" style="stop-color:#15BBEF"/>
			<stop  offset="0.3005" style="stop-color:#09A6E0"/>
			<stop  offset="0.52" style="stop-color:#0699D6"/>
			<stop  offset="1" style="stop-color:#0E5CA8"/>
		</linearGradient>
		<polygon class="st3" points="70.4,-4 133,63.6 64.6,126.9 2,59.3 		"/>
	</g>
	<g>
		<defs>
			<rect id="SVGID_13_" x="2.7" y="0" width="154.6" height="160"/>
		</defs>
		<clipPath id="SVGID_14_">
			<use xlink:href="#SVGID_13_"  style="overflow:visible;"/>
		</clipPath>
		<path class="st4" d="M141.5,84.8c0.3-2,1.2-8.1-0.1-15.1c-1.1-5.7-2.1-8.5-2.7-9.9c-1.3,0.8-3.9,2.6-6.5,4c1,4.4,1.4,9.1,1.4,14
			c0,3.7-0.3,7.2-0.9,10.7C137.1,87.3,140.4,85.4,141.5,84.8"/>
	</g>
	<g>
		<defs>
			<path id="SVGID_15_" d="M17.8,69.4c-1.2,7.1-0.5,13.4-0.3,15.3c1.9,1.3,9.8,6.1,25.3,6C56,90.5,68.1,86.3,77,77.9L61.7,62.3
				c0,0-0.2-0.2-0.5-0.5c-0.2-0.2-0.5-0.4-0.8-0.4c-0.2,0-0.5,0.1-0.7,0.3c-0.3,0.2-0.5,0.3-0.5,0.3c-2.1,1.7-8,5.8-17.8,5.6
				c-9.5-0.1-17.7-5.2-21-7.6C19.7,61.7,18.5,64.8,17.8,69.4"/>
		</defs>
		<clipPath id="SVGID_16_">
			<use xlink:href="#SVGID_15_"  style="overflow:visible;"/>
		</clipPath>
		
			<radialGradient id="SVGID_17_" cx="-346.3835" cy="392.0613" r="1.6559" gradientTransform="matrix(20.4098 -12.963 -12.963 -20.4098 12183.6133 3598.9443)" gradientUnits="userSpaceOnUse">
			<stop  offset="0" style="stop-color:#B9D478"/>
			<stop  offset="0.6224" style="stop-color:#97C453"/>
			<stop  offset="1" style="stop-color:#76B948"/>
		</radialGradient>
		<polygon class="st5" points="2.6,68.9 59.6,32.7 90.9,82 33.9,118.2 		"/>
	</g>
	<g>
		<defs>
			<path id="SVGID_18_" d="M85.7,36.9c-1.7,1-2.9,2.1-3.6,2.7l19.3,19.3c1.1,1.1,6.7,7,6.7,22.2c0,22.8-19,42.1-41.4,42.1
				c-5.9,0-11.6-1.3-16.8-3.6c8.4,5.9,18.5,9.3,29.4,9.3c14,0,27-5,36.5-14.1c9.9-9.4,15.3-22.7,15.3-37.5c0-7.2-1-13.3-2.7-18.4
				c-1.7-4.4-10.6-25.6-28.6-25.6C93,33.4,88.4,35.3,85.7,36.9"/>
		</defs>
		<clipPath id="SVGID_19_">
			<use xlink:href="#SVGID_18_"  style="overflow:visible;"/>
		</clipPath>
		
			<radialGradient id="SVGID_20_" cx="-340.0947" cy="371.1371" r="1.6559" gradientTransform="matrix(-22.6357 47.4906 47.4906 22.6357 -25211.7617 7797.0693)" gradientUnits="userSpaceOnUse">
			<stop  offset="0" style="stop-color:#B9D478"/>
			<stop  offset="0.6224" style="stop-color:#97C453"/>
			<stop  offset="1" style="stop-color:#76B948"/>
		</radialGradient>
		<polygon class="st6" points="168.2,51.1 116.1,160.5 12.8,111.3 65,1.9 		"/>
	</g>
	<g>
		<defs>
			<rect id="SVGID_21_" x="2.7" y="0" width="154.6" height="160"/>
		</defs>
		<clipPath id="SVGID_22_">
			<use xlink:href="#SVGID_21_"  style="overflow:visible;"/>
		</clipPath>
		<path class="st7" d="M2.7,141.6h3.4c2.8,0,5.4,0.4,5.4,3.8c0,1.7-1.3,2.9-2.9,3.2v0c0.6,0.2,0.9,0.5,1.4,1.4l2.6,5.6h-2.3
			l-2.1-4.8c-0.6-1.4-1.3-1.4-2.3-1.4H4.7v6.2h-2V141.6z M4.7,147.6h1.7c1.9,0,3-0.8,3-2.2c0-1.3-1-2.1-2.8-2.1H4.7V147.6z"/>
		<path class="st7" d="M21.6,155.1c-0.7,0.3-1.5,0.7-3.2,0.7c-3.6,0-5.3-2.2-5.3-5.5c0-3,1.9-5.2,4.8-5.2c3.4,0,4.5,2.5,4.5,5.8
			h-7.3c0,2,1.6,3.4,3.4,3.4c1.2,0,2.7-0.6,3.1-1V155.1z M20.4,149.5c0-1.6-0.9-2.8-2.5-2.8c-1.8,0-2.6,1.5-2.7,2.8H20.4z"/>
		<path class="st7" d="M33.2,155.1c0,3.1-1.6,4.9-5.3,4.9c-1.1,0-2-0.1-3.7-0.7l0.2-1.7c1.4,0.7,2.3,0.9,3.7,0.9
			c2,0,3.2-1.3,3.2-3.5v-1h0c-0.8,1.1-2.1,1.6-3.4,1.6c-2.9,0-4.4-2.4-4.4-5c0-2.6,1.5-5.4,4.6-5.4c1.8,0,2.8,0.7,3.4,1.8h0v-1.5
			h1.7V155.1z M31.3,150.6c0-2.1-1-3.9-3-3.9c-1.9,0-2.8,2.1-2.8,3.8c0,1.9,1.1,3.6,2.8,3.6C30.1,154,31.3,152.5,31.3,150.6"/>
		<path class="st7" d="M37.6,143.1h-2.1V141h2.1V143.1z M35.6,145.4h1.9v10.2h-1.9V145.4z"/>
		<path class="st7" d="M44.4,145.1c3.1,0,5.2,2.2,5.2,5.3c0,2.9-2.1,5.3-5.2,5.3c-3.1,0-5.2-2.4-5.2-5.3
			C39.2,147.4,41.3,145.1,44.4,145.1 M44.4,154.3c2.2,0,3.2-2,3.2-3.8c0-1.9-1.2-3.8-3.2-3.8c-2,0-3.2,1.9-3.2,3.8
			C41.2,152.3,42.2,154.3,44.4,154.3"/>
		<path class="st7" d="M51.2,145.4H53v1.6h0c0.6-1.2,1.9-1.9,3.3-1.9c2.6,0,3.8,1.6,3.8,4.4v6.1h-1.9v-5.3c0-2.4-0.5-3.5-2.2-3.6
			c-2.1,0-3.1,1.7-3.1,4.2v4.7h-1.9V145.4z"/>
		<path class="st7" d="M73.6,141.4c4.2,0,6.7,3.1,6.7,7.2c0,4.2-2.5,7.2-6.7,7.2c-4.3,0-6.7-3-6.7-7.2
			C66.9,144.5,69.4,141.4,73.6,141.4 M73.6,154c3.2,0,4.6-2.7,4.6-5.5c0-2.8-1.5-5.5-4.6-5.5c-3.1,0-4.6,2.6-4.6,5.5
			C69,151.4,70.4,154,73.6,154 M71.1,138.5h1.9v2h-1.9V138.5z M74.3,138.5h1.9v2h-1.9V138.5z"/>
		<path class="st7" d="M82.3,145.4H84v1.6h0c0.5-1.1,1.6-1.8,2.7-1.8c0.6,0,0.8,0.1,1.2,0.1v1.7c-0.3-0.1-0.7-0.2-1-0.2
			c-1.7,0-2.8,1.6-2.8,4.2v4.6h-1.9V145.4z"/>
		<path class="st7" d="M96.8,155.1c-0.7,0.3-1.5,0.7-3.2,0.7c-3.6,0-5.3-2.2-5.3-5.5c0-3,1.9-5.2,4.8-5.2c3.4,0,4.5,2.5,4.5,5.8
			h-7.3c0,2,1.6,3.4,3.4,3.4c1.2,0,2.7-0.6,3.1-1V155.1z M95.6,149.5c0-1.6-0.9-2.8-2.5-2.8c-1.8,0-2.6,1.5-2.7,2.8H95.6z"/>
		<path class="st7" d="M99.3,140.6h1.9v6.2h0c0.6-0.9,1.6-1.6,3.4-1.6c3,0,4.4,2.4,4.4,5.2c0,2.8-1.3,5.5-4.4,5.5
			c-1.8,0-3-0.9-3.5-1.7h0v1.4h-1.8V140.6z M104.2,146.7c-2,0-3,1.9-3,3.8c0,1.7,0.9,3.8,3,3.8c2,0,2.9-2.3,2.8-3.9
			C107,148.6,106.2,146.7,104.2,146.7"/>
		<path class="st7" d="M110.7,145.4h1.8v1.6h0c0.5-1.1,1.6-1.8,2.7-1.8c0.6,0,0.8,0.1,1.2,0.1v1.7c-0.3-0.1-0.7-0.2-1-0.2
			c-1.7,0-2.8,1.6-2.8,4.2v4.6h-1.9V145.4z"/>
		<path class="st7" d="M121.9,145.1c3.1,0,5.2,2.2,5.2,5.3c0,2.9-2.1,5.3-5.2,5.3c-3.1,0-5.2-2.4-5.2-5.3
			C116.7,147.4,118.8,145.1,121.9,145.1 M121.9,154.3c2.2,0,3.2-2,3.2-3.8c0-1.9-1.2-3.8-3.2-3.8c-2,0-3.2,1.9-3.2,3.8
			C118.7,152.3,119.7,154.3,121.9,154.3"/>
		<rect x="133.9" y="140.6" class="st7" width="1.9" height="15"/>
		<path class="st7" d="M138.6,146.1c0.9-0.6,2.1-1,3.4-1c2.9,0,4.1,1.4,4.1,4.2v4.2c0,1.2,0,1.7,0.1,2h-1.8v-1.3h0
			c-0.4,0.6-1.4,1.6-3.2,1.6c-2.2,0-3.7-1-3.7-3.2c0-2.6,2.8-3.4,4.7-3.4c0.7,0,1.3,0,2,0c0-1.8-0.6-2.7-2.5-2.7c-1.1,0-2.2,0.4-3,1
			L138.6,146.1z M144.2,150.7c-0.4,0-0.8,0-1.2,0c-1,0-3.5,0.2-3.5,2c0,1.1,1,1.7,1.9,1.7c1.9,0,2.8-1.2,2.8-2.7V150.7z
			 M139.5,141.8h1.9v2h-1.9V141.8z M142.8,141.8h1.9v2h-1.9V141.8z"/>
		<path class="st7" d="M148.3,145.4h1.8v1.6h0c0.6-1.2,1.9-1.9,3.3-1.9c2.6,0,3.8,1.6,3.8,4.4v6.1h-1.9v-5.3c0-2.4-0.5-3.5-2.2-3.6
			c-2.1,0-3.1,1.7-3.1,4.2v4.7h-1.9V145.4z"/>
	</g>
</g>
</svg>
